{"accessors":[{"bufferView":0,"byteOffset":0,"componentType":5123,"count":7086,"max":[7085],"min":[0],"name":"buffer-0-accessor-indices-buffer-0-mesh-0","type":"SCALAR"},{"bufferView":2,"byteOffset":0,"componentType":5126,"count":7086,"max":[13.20576953887939,55.50045394897461,13.20576953887939],"min":[-13.20576953887939,0,-13.20576953887939],"name":"buffer-0-accessor-position-buffer-0-mesh-0","type":"VEC3"},{"bufferView":2,"byteOffset":85032,"componentType":5126,"count":7086,"max":[1,1,1],"min":[-1,-1,-1],"name":"buffer-0-accessor-normal-buffer-0-mesh-0","type":"VEC3"},{"bufferView":1,"byteOffset":0,"componentType":5126,"count":7086,"max":[0.9868959784507751,0],"min":[0,-0.9857749938964844],"name":"buffer-0-accessor-texcoord-buffer-0-mesh-0","type":"VEC2"},{"bufferView":3,"byteOffset":0,"componentType":5126,"count":0,"max":[0,0,0,0],"min":[0,0,0,0],"name":"buffer-0-accessor-color-buffer-0-mesh-0","type":"VEC4"}],"asset":{"generator":"Obj2GltfConverter","version":"2.0"},"bufferViews":[{"buffer":0,"byteLength":14172,"byteOffset":0,"byteStride":0,"name":"buffer-0-bufferview-ushort","target":34963},{"buffer":0,"byteLength":56688,"byteOffset":14176,"byteStride":8,"name":"buffer-0-bufferview-vec2","target":34962},{"buffer":0,"byteLength":170064,"byteOffset":70872,"byteStride":12,"name":"buffer-0-bufferview-vec3","target":34962},{"buffer":0,"byteLength":1,"byteOffset":0,"name":"buffer-0-bufferview-vec4"}],"buffers":[{"byteLength":240944,"name":"buffer-0","uri":"data:application/octet-stream;base64,"}],"images":[{"mimeType":"image/png","name":"lambert2SG-image","uri":"data:application/octet-stream;base64,"}],"materials":[{"alphaMode":"OPAQUE","doubleSided":true,"name":"lambert2SG","pbrMetallicRoughness":{"baseColorFactor":[0.5,0.5,0.5,1],"baseColorTexture":{"index":0,"texCoord":0},"metallicFactor":0,"roughnessFactor":0.9699476628648295}}],"meshes":[{"name":"buffer-0-mesh-0","primitives":[{"attributes":{"NORMAL":2,"POSITION":1,"TEXCOORD_0":3},"indices":0,"material":0,"mode":4}]}],"nodes":[{"mesh":0,"name":"node-0"}],"samplers":[{"name":"lambert2SG-sampler","wrapS":10497,"wrapT":10497}],"scenes":[{"name":"scene-0","nodes":[0]}],"textures":[{"name":"lambert2SG-texture","sampler":0,"source":0}]}